<svg xmlns="http://www.w3.org/2000/svg" viewBox="0 0 100 100">
  <defs>
    <linearGradient id="bgGrad" x1="0%" y1="0%" x2="100%" y2="100%">
      <stop offset="0%" style="stop-color:#FF9A9E"/>
      <stop offset="100%" style="stop-color:#FECFEF"/>
    </linearGradient>
    <linearGradient id="skinGrad2" x1="0%" y1="0%" x2="100%" y2="100%">
      <stop offset="0%" style="stop-color:#FFE4D6"/>
      <stop offset="100%" style="stop-color:#FFDAB9"/>
    </linearGradient>
  </defs>
  
  <!-- 背景 -->
  <circle cx="50" cy="50" r="48" fill="url(#bgGrad)"/>
  
  <!-- 头发 -->
  <ellipse cx="50" cy="38" rx="28" ry="25" fill="#4A3728"/>
  
  <!-- 脸 -->
  <ellipse cx="50" cy="50" rx="22" ry="24" fill="url(#skinGrad2)"/>
  
  <!-- 刘海 -->
  <path d="M28 40 Q35 25 50 25 Q65 25 72 40 Q65 35 50 35 Q35 35 28 40 Z" fill="#4A3728"/>
  
  <!-- 眼睛 -->
  <circle cx="40" cy="50" r="5" fill="#2D1F14"/>
  <circle cx="60" cy="50" r="5" fill="#2D1F14"/>
  <circle cx="41" cy="48" r="2" fill="white"/>
  <circle cx="61" cy="48" r="2" fill="white"/>
  
  <!-- 腮红 -->
  <ellipse cx="32" cy="58" rx="5" ry="3" fill="#FFB6C1" opacity="0.6"/>
  <ellipse cx="68" cy="58" rx="5" ry="3" fill="#FFB6C1" opacity="0.6"/>
  
  <!-- 嘴巴 -->
  <path d="M45 65 Q50 70 55 65" stroke="#D4838A" stroke-width="2" fill="none" stroke-linecap="round"/>
  
  <!-- 小辫子/发饰 -->
  <circle cx="28" cy="32" r="6" fill="#4A3728"/>
  <circle cx="72" cy="32" r="6" fill="#4A3728"/>
  <circle cx="28" cy="32" r="3" fill="#FF6B9D"/>
  <circle cx="72" cy="32" r="3" fill="#FF6B9D"/>
</svg>

