<svg xmlns="http://www.w3.org/2000/svg" viewBox="0 0 100 100">
  <defs>
    <linearGradient id="bg" x1="0%" y1="0%" x2="100%" y2="100%">
      <stop offset="0%" style="stop-color:#FFE8EE"/>
      <stop offset="100%" style="stop-color:#E8F5F2"/>
    </linearGradient>
    <linearGradient id="skin" x1="0%" y1="0%" x2="100%" y2="100%">
      <stop offset="0%" style="stop-color:#FFE4C9"/>
      <stop offset="100%" style="stop-color:#FFDAB9"/>
    </linearGradient>
  </defs>
  
  <!-- 背景圆 -->
  <circle cx="50" cy="50" r="50" fill="url(#bg)"/>
  
  <!-- 头发 -->
  <ellipse cx="50" cy="40" rx="28" ry="26" fill="#4A4A4A"/>
  
  <!-- 脸 -->
  <ellipse cx="50" cy="48" rx="22" ry="23" fill="url(#skin)"/>
  
  <!-- 刘海 -->
  <path d="M28 38 Q35 28 50 30 Q65 28 72 38 Q68 35 50 36 Q32 35 28 38" fill="#4A4A4A"/>
  
  <!-- 眼睛 -->
  <ellipse cx="40" cy="48" rx="4" ry="4.5" fill="#333"/>
  <ellipse cx="60" cy="48" rx="4" ry="4.5" fill="#333"/>
  
  <!-- 眼睛高光 -->
  <circle cx="41.5" cy="46.5" r="1.5" fill="#FFF"/>
  <circle cx="61.5" cy="46.5" r="1.5" fill="#FFF"/>
  
  <!-- 腮红 -->
  <ellipse cx="34" cy="54" rx="5" ry="3" fill="#FFB6C1" opacity="0.5"/>
  <ellipse cx="66" cy="54" rx="5" ry="3" fill="#FFB6C1" opacity="0.5"/>
  
  <!-- 嘴巴 -->
  <path d="M44 58 Q50 62 56 58" stroke="#E57373" stroke-width="2" fill="none" stroke-linecap="round"/>
  
  <!-- 身体 -->
  <path d="M30 75 Q30 68 50 68 Q70 68 70 75 L70 100 L30 100 Z" fill="#FFB74D"/>
</svg>

