<svg xmlns="http://www.w3.org/2000/svg" viewBox="0 0 100 100">
  <defs>
    <linearGradient id="bg5" x1="0%" y1="0%" x2="100%" y2="100%">
      <stop offset="0%" style="stop-color:#DDA0DD"/>
      <stop offset="100%" style="stop-color:#9370DB"/>
    </linearGradient>
  </defs>
  <circle cx="50" cy="50" r="50" fill="url(#bg5)"/>
  <circle cx="50" cy="44" r="22" fill="#FFE4C9"/>
  <ellipse cx="50" cy="82" rx="26" ry="18" fill="#9370DB"/>
  <path d="M38 38 L44 42" stroke="#333" stroke-width="2" stroke-linecap="round"/>
  <path d="M62 38 L56 42" stroke="#333" stroke-width="2" stroke-linecap="round"/>
  <circle cx="42" cy="44" r="3" fill="#333"/>
  <circle cx="58" cy="44" r="3" fill="#333"/>
  <path d="M45 52 Q50 55 55 52" stroke="#333" stroke-width="2" fill="none" stroke-linecap="round"/>
  <path d="M25 35 Q28 18 50 15 Q72 18 75 35" stroke="#4A3728" stroke-width="6" fill="none" stroke-linecap="round"/>
  <path d="M25 35 Q22 45 25 55" stroke="#4A3728" stroke-width="6" fill="none" stroke-linecap="round"/>
  <path d="M75 35 Q78 45 75 55" stroke="#4A3728" stroke-width="6" fill="none" stroke-linecap="round"/>
  <circle cx="32" cy="18" r="4" fill="#FF69B4"/>
  <circle cx="68" cy="18" r="4" fill="#FF69B4"/>
</svg>

